<svg xmlns="http://www.w3.org/2000/svg" xmlns:svg="http://www.w3.org/2000/svg" id="svg2" width="355.17" height="338.017" version="1.1" viewBox="0 0 332.972 316.891"><defs id="defs4"><clipPath id="clipPath6150" clipPathUnits="userSpaceOnUse"><g id="g6152" style="fill:#000;fill-opacity:.20414201"><path style="font-style:normal;font-variant:normal;font-weight:700;font-stretch:normal;font-size:medium;line-height:125%;font-family:Corbel;-inkscape-font-specification:'Corbel Bold';letter-spacing:0;word-spacing:0;fill:#000;fill-opacity:.20414201;stroke:none;stroke-width:1px;stroke-linecap:butt;stroke-linejoin:miter;stroke-opacity:1" id="path6154" d="m 329.26507,335.57395 c -29.39798,-8.76003 -41.48966,24.33137 -26.06357,39.99669 l 14.64576,14.87286 c -15.42611,-15.66531 -3.33442,-48.75671 26.06356,-39.99668 z"/><path style="font-style:normal;font-variant:normal;font-weight:700;font-stretch:normal;font-size:medium;line-height:125%;font-family:Corbel;-inkscape-font-specification:'Corbel Bold';letter-spacing:0;word-spacing:0;fill:#000;fill-opacity:.20414201;stroke:none;stroke-width:1px;stroke-linecap:butt;stroke-linejoin:miter;stroke-opacity:1" id="path6156" d="m 303.31295,377.49185 c 5.68194,5.84461 15.18786,9.23633 29.05314,7.02715 l 14.29843,14.70782 c -13.86528,2.20918 -23.3712,-1.18253 -29.05314,-7.02715 z"/><path style="fill:#000;fill-opacity:.20414201;fill-rule:evenodd;stroke:none;stroke-width:.61306483px;stroke-linecap:butt;stroke-linejoin:miter;stroke-opacity:1" id="path6158" d="m 327.0336,376.89206 23.42717,-50.81321 14.70782,14.70782 -23.42717,50.81321 z"/></g></clipPath></defs><metadata id="metadata7"/><g id="layer2" transform="translate(-290.50076,-325.71241)"><ellipse style="fill:#607d8b;fill-opacity:1;stroke:none" id="ellipse6113-0-4" cx="467.579" cy="492.105" rx="155.894" ry="150.499"/><ellipse style="fill:#ffe680;fill-opacity:1;stroke:none" id="ellipse6113-0" cx="446.737" cy="479.047" rx="155.894" ry="150.499"/><ellipse id="path4164" cx="329.518" cy="363.995" clip-path="url(#clipPath6150)" rx="39.013" ry="37.663" transform="matrix(3.9959534,0,0,3.9959534,-870.32671,-975.81895)" style="fill:#000;fill-opacity:.2988167;stroke:none"/></g><g id="layer1" transform="translate(-290.50076,-325.71241)"><text id="text3336-9" x="464.835" y="535.343" transform="scale(1.0197746,0.98060885)" xml:space="preserve" style="font-style:normal;font-weight:400;font-size:82.42398834px;line-height:125%;font-family:sans-serif;letter-spacing:0;word-spacing:0;fill:#607d8b;fill-opacity:1;stroke:#fff;stroke-width:3.99595332;stroke-linecap:butt;stroke-linejoin:miter;stroke-miterlimit:4;stroke-dasharray:none;stroke-opacity:1"><tspan style="font-style:normal;font-variant:normal;font-weight:700;font-stretch:normal;font-size:144.24197388px;font-family:Corbel;-inkscape-font-specification:'Corbel Bold';fill:#607d8b;fill-opacity:1;stroke:#fff;stroke-width:3.99595332;stroke-linejoin:miter;stroke-miterlimit:4;stroke-dasharray:none;stroke-opacity:1" id="tspan3338-2" x="464.835" y="535.343">S</tspan></text><g id="text3336" transform="matrix(3.9271216,-0.08931639,0.10415317,4.0636229,-871.2547,-977.23173)" style="font-style:normal;font-weight:400;font-size:34.28156662px;line-height:125%;font-family:sans-serif;letter-spacing:0;word-spacing:0;fill:#607d8b;fill-opacity:1;stroke:#fff;stroke-width:1px;stroke-linecap:butt;stroke-linejoin:miter;stroke-opacity:1"><path id="path4161" d="m 329.34311,383.84299 -0.26573,3.30498 c -61.31694,7.31526 -50.90936,-67.91744 -1.023,-51.38056 l -1.27097,2.215 c -41.03844,-12.63444 -50.5974,52.62264 2.5597,45.86058 z" style="font-style:normal;font-variant:normal;font-weight:700;font-stretch:normal;font-size:98.43230438px;font-family:Corbel;-inkscape-font-specification:'Corbel Bold';fill:#607d8b;fill-opacity:1;stroke:#fff;stroke-opacity:1"/></g><path id="path3340" d="m 359.55023,413.09969 -2.3483,14.0845 79.41578,103.60636 93.61388,-203.04722 -47.70393,0.49938 -59.76352,156.78746 z" style="fill:#607d8b;fill-opacity:1;fill-rule:evenodd;stroke:#fff;stroke-width:3.99595332;stroke-linecap:butt;stroke-linejoin:miter;stroke-miterlimit:4;stroke-dasharray:none;stroke-opacity:1"/></g></svg>