<svg xmlns="http://www.w3.org/2000/svg" xmlns:xlink="http://www.w3.org/1999/xlink" width="110" height="110" x="0" y="0" version="1.0" viewBox="0 0 110 110" xml:space="preserve" style="enable-background:new 0 0 110 110"><g id="Artboard" style="display:none"><rect style="display:inline;fill:#8c8c8c" width="1412" height="743" x="-607" y="-583"/></g><g id="R-Multicolor"><circle style="fill:#25b7d3" cx="55" cy="55" r="55"/><g><path style="fill:#e2e4e5" d="M83.485,66.502c-3.139-3.139-7.582-4.164-11.583-3.098L50.167,41.67 c1.747-4.929,0.664-10.637-3.28-14.582c-3.947-3.947-9.659-5.029-14.591-3.277l10.348,10.348v5.657l-2.828,2.828h-5.657 L23.811,32.296c-1.751,4.932-0.669,10.644,3.277,14.591c3.949,3.949,9.666,5.03,14.6,3.274l21.728,21.728 c-1.066,4.002-0.041,8.445,3.098,11.584c4.686,4.686,12.284,4.686,16.971,0C88.172,78.787,88.172,71.189,83.485,66.502z M76.866,81.953l-6.965-1.866l-1.866-6.965l5.099-5.099l6.965,1.866l1.866,6.965L76.866,81.953z"/><path style="fill:#fff" d="M71.902,63.404L50.167,41.67c1.747-4.929,0.664-10.637-3.28-14.582 c-3.947-3.947-9.659-5.029-14.591-3.277l10.348,10.348v5.657l-1.355,1.355l29.348,29.348l2.497-2.497l6.965,1.866l1.866,6.965 l-2.497,2.497l4.067,4.067c4.633-4.69,4.619-12.247-0.05-16.916C80.346,63.363,75.903,62.338,71.902,63.404z"/><path style="fill:#df2c2c" d="M53.788,68.08c0.757-0.757,1.055-1.864,0.778-2.899c-0.268-1.001-0.009-2.114,0.777-2.899 l2.828-2.828c0.391-0.391,0.391-1.024,0-1.414l-5.657-5.657c-0.391-0.391-1.024-0.391-1.414,0l-2.828,2.828 c-0.785,0.785-1.898,1.044-2.899,0.777c-1.036-0.277-2.141,0.02-2.899,0.778L24.23,75.01c-3.536,3.536,7.778,14.849,11.314,11.314 L53.788,68.08z"/><polygon style="fill:#e2e4e5" points="83.187 24.539 71.166 30.903 70.459 35.853 53.222 53.09 57.464 57.333 74.702 40.095 79.581 39.459 86.095 27.447"/><polygon style="fill:#fff" points="83.187 24.539 71.166 30.903 70.459 35.853 53.222 53.09 55.566 55.434 84.824 26.176"/><path style="fill:#fa5655" d="M52.515,52.383c-0.391-0.391-1.023-0.391-1.414,0l-2.829,2.829 c-0.785,0.786-1.898,1.044-2.899,0.776c-1.036-0.277-2.141,0.021-2.899,0.779L24.23,75.01c-1.814,1.814,0.284,5.674,3.232,8.527 l28.104-28.103L52.515,52.383z"/></g></g><g id="Multicolor" style="display:none"><g style="display:inline"><path style="fill:#e2e4e5" d="M83.485,66.502c-3.139-3.139-7.582-4.164-11.583-3.098L50.167,41.67 c1.747-4.929,0.664-10.637-3.28-14.582c-3.947-3.947-9.659-5.029-14.591-3.277l10.348,10.348v5.657l-2.828,2.828h-5.657 L23.811,32.296c-1.751,4.932-0.669,10.644,3.277,14.591c3.949,3.949,9.666,5.03,14.6,3.274l21.728,21.728 c-1.066,4.002-0.041,8.445,3.098,11.584c4.686,4.686,12.284,4.686,16.971,0C88.172,78.787,88.172,71.189,83.485,66.502z M76.866,81.953l-6.965-1.866l-1.866-6.965l5.099-5.099l6.965,1.866l1.866,6.965L76.866,81.953z"/><path style="fill:#fff" d="M71.902,63.404L50.167,41.67c1.747-4.929,0.664-10.637-3.28-14.582 c-3.947-3.947-9.659-5.029-14.591-3.277l10.348,10.348v5.657l-1.355,1.355l29.348,29.348l2.497-2.497l6.965,1.866l1.866,6.965 l-2.497,2.497l4.067,4.067c4.633-4.69,4.619-12.247-0.05-16.916C80.346,63.363,75.903,62.338,71.902,63.404z"/><path style="fill:#df2c2c" d="M53.788,68.08c0.757-0.757,1.055-1.864,0.778-2.899c-0.268-1.001-0.009-2.114,0.777-2.899 l2.828-2.828c0.391-0.391,0.391-1.024,0-1.414l-5.657-5.657c-0.391-0.391-1.024-0.391-1.414,0l-2.828,2.828 c-0.785,0.785-1.898,1.044-2.899,0.777c-1.036-0.277-2.141,0.02-2.899,0.778L24.23,75.01c-3.536,3.536,7.778,14.849,11.314,11.314 L53.788,68.08z"/><polygon style="fill:#e2e4e5" points="83.187 24.539 71.166 30.903 70.459 35.853 53.222 53.09 57.464 57.333 74.702 40.095 79.581 39.459 86.095 27.447"/><polygon style="fill:#fff" points="83.187 24.539 71.166 30.903 70.459 35.853 53.222 53.09 55.566 55.434 84.824 26.176"/><path style="fill:#fa5655" d="M52.515,52.383c-0.391-0.391-1.023-0.391-1.414,0l-2.829,2.829 c-0.785,0.786-1.898,1.044-2.899,0.776c-1.036-0.277-2.141,0.021-2.899,0.779L24.23,75.01c-1.814,1.814,0.284,5.674,3.232,8.527 l28.104-28.103L52.515,52.383z"/></g></g><g id="Blue" style="display:none"><g style="display:inline"><g><path style="fill:#e1f5fa" d="M83.488,66.502c-3.139-3.139-7.582-4.164-11.584-3.098L50.17,41.67 c1.747-4.929,0.664-10.637-3.28-14.581c-3.947-3.947-9.659-5.029-14.591-3.277L42.647,34.16v5.657l-2.829,2.828h-5.657 L23.813,32.296c-1.751,4.931-0.669,10.644,3.278,14.591c3.949,3.949,9.666,5.03,14.6,3.274l21.729,21.729 c-1.066,4.001-0.041,8.445,3.098,11.584c4.686,4.687,12.284,4.687,16.971,0C88.174,78.786,88.174,71.189,83.488,66.502z M76.869,81.952l-6.965-1.866l-1.866-6.965l5.099-5.099l6.965,1.866l1.866,6.965L76.869,81.952z"/></g><g><path style="fill:#fff" d="M71.905,63.404L50.17,41.67c1.747-4.929,0.664-10.637-3.28-14.581 c-3.947-3.947-9.66-5.029-14.591-3.278l10.348,10.349v5.657l-1.356,1.355L70.64,70.518l2.497-2.496l6.965,1.866l1.866,6.965 l-2.497,2.498l4.067,4.067c4.633-4.691,4.619-12.247-0.05-16.916C80.349,63.363,75.906,62.338,71.905,63.404z"/></g><g><path style="fill:#0081a1" d="M53.79,68.08c0.757-0.757,1.055-1.864,0.779-2.898c-0.268-1.001-0.009-2.114,0.777-2.899 l2.828-2.829c0.39-0.39,0.39-1.023,0-1.414l-5.657-5.657c-0.391-0.39-1.024-0.39-1.414,0l-2.829,2.829 c-0.785,0.786-1.898,1.045-2.898,0.776c-1.036-0.276-2.141,0.021-2.899,0.779L24.233,75.011 c-3.536,3.535,7.778,14.849,11.313,11.313L53.79,68.08z"/></g><g><polygon style="fill:#e1f5fa" points="83.19 24.539 71.169 30.903 70.462 35.853 53.225 53.09 57.467 57.333 74.705 40.095 79.583 39.459 86.098 27.447"/></g><g><polygon style="fill:#fff" points="83.189 24.539 71.169 30.903 70.462 35.852 53.225 53.09 55.569 55.434 84.827 26.176"/></g><g><path style="fill:#009fc7" d="M52.517,52.383c-0.391-0.391-1.023-0.391-1.414,0l-2.829,2.829 c-0.785,0.786-1.898,1.045-2.899,0.776c-1.035-0.277-2.14,0.021-2.898,0.779L24.233,75.01c-1.815,1.814,0.284,5.674,3.232,8.527 l28.104-28.103L52.517,52.383z"/></g></g></g><g id="R-Blue" style="display:none"><g style="display:inline"><circle style="fill:#81d2eb" cx="55" cy="55" r="55"/></g><g style="display:inline"><g><path style="fill:#e1f5fa" d="M83.485,66.502c-3.139-3.139-7.582-4.164-11.583-3.098L50.167,41.67 c1.747-4.929,0.664-10.637-3.28-14.581c-3.947-3.947-9.659-5.029-14.591-3.277L42.645,34.16v5.657l-2.829,2.828h-5.657 L23.811,32.296c-1.751,4.931-0.669,10.644,3.278,14.591c3.949,3.949,9.666,5.03,14.6,3.274L63.417,71.89 c-1.066,4.001-0.041,8.445,3.098,11.583c4.686,4.687,12.284,4.687,16.971,0C88.171,78.787,88.171,71.189,83.485,66.502z M76.866,81.953l-6.965-1.866l-1.866-6.965l5.099-5.099l6.965,1.866l1.866,6.965L76.866,81.953z"/></g><g><path style="fill:#fff" d="M71.902,63.404L50.167,41.67c1.747-4.929,0.664-10.637-3.28-14.581 c-3.947-3.947-9.66-5.029-14.591-3.278l10.348,10.349v5.657l-1.356,1.355l29.348,29.347l2.497-2.496l6.965,1.866l1.866,6.965 l-2.497,2.498l4.067,4.067c4.633-4.69,4.619-12.247-0.05-16.916C80.346,63.363,75.903,62.338,71.902,63.404z"/></g><g><path style="fill:#0081a1" d="M53.788,68.08c0.757-0.757,1.055-1.864,0.779-2.898c-0.268-1.001-0.009-2.114,0.777-2.899 l2.828-2.829c0.39-0.39,0.39-1.023,0-1.414l-5.657-5.657c-0.391-0.39-1.024-0.39-1.414,0l-2.829,2.829 c-0.785,0.786-1.898,1.045-2.898,0.776c-1.036-0.276-2.141,0.021-2.899,0.779L24.231,75.011 c-3.536,3.535,7.778,14.849,11.313,11.314L53.788,68.08z"/></g><g><polygon style="fill:#e1f5fa" points="83.187 24.539 71.166 30.903 70.459 35.853 53.222 53.09 57.464 57.333 74.702 40.095 79.581 39.459 86.095 27.447"/></g><g><polygon style="fill:#fff" points="83.187 24.539 71.167 30.903 70.46 35.853 53.222 53.09 55.566 55.434 84.824 26.176"/></g><g><path style="fill:#009fc7" d="M52.515,52.383c-0.391-0.391-1.023-0.391-1.414,0l-2.829,2.829 c-0.785,0.786-1.898,1.045-2.899,0.776c-1.035-0.277-2.14,0.021-2.898,0.779L24.231,75.01c-1.815,1.814,0.284,5.674,3.232,8.527 l28.104-28.103L52.515,52.383z"/></g></g></g><g id="Green" style="display:none"><g style="display:inline"><g><path style="fill:#d7fcf9" d="M83.488,66.502c-3.139-3.139-7.582-4.164-11.584-3.098L50.17,41.67 c1.747-4.929,0.664-10.637-3.28-14.581c-3.947-3.947-9.659-5.029-14.591-3.277L42.647,34.16v5.657l-2.829,2.828h-5.657 L23.813,32.296c-1.751,4.931-0.669,10.644,3.278,14.591c3.949,3.949,9.666,5.03,14.6,3.274L63.419,71.89 c-1.066,4.001-0.041,8.445,3.098,11.583c4.686,4.687,12.284,4.687,16.971,0C88.174,78.787,88.174,71.189,83.488,66.502z M76.869,81.953l-6.965-1.866l-1.866-6.965l5.099-5.099l6.965,1.866l1.866,6.965L76.869,81.953z"/></g><g><path style="fill:#fff" d="M71.905,63.404L50.17,41.67c1.747-4.929,0.664-10.637-3.28-14.581 c-3.947-3.947-9.66-5.029-14.591-3.278l10.348,10.349v5.657l-1.356,1.355L70.64,70.519l2.497-2.496l6.965,1.866l1.866,6.965 l-2.497,2.498l4.067,4.067c4.633-4.69,4.619-12.247-0.05-16.916C80.349,63.363,75.906,62.338,71.905,63.404z"/></g><g><path style="fill:#009687" d="M53.79,68.08c0.757-0.757,1.055-1.864,0.779-2.898c-0.268-1.001-0.009-2.114,0.777-2.899 l2.828-2.829c0.39-0.39,0.39-1.023,0-1.414l-5.657-5.657c-0.391-0.39-1.024-0.39-1.414,0l-2.829,2.829 c-0.785,0.786-1.898,1.045-2.898,0.776c-1.036-0.276-2.141,0.021-2.899,0.779L24.233,75.011 c-3.536,3.535,7.778,14.849,11.313,11.314L53.79,68.08z"/></g><g><polygon style="fill:#d7fcf9" points="83.19 24.539 71.169 30.903 70.462 35.853 53.225 53.09 57.467 57.333 74.705 40.095 79.583 39.459 86.098 27.447"/></g><g><polygon style="fill:#fff" points="83.189 24.539 71.169 30.903 70.462 35.853 53.225 53.09 55.569 55.434 84.827 26.176"/></g><g><path style="fill:#00b8a5" d="M52.517,52.383c-0.391-0.391-1.023-0.391-1.414,0l-2.829,2.829 c-0.785,0.786-1.898,1.045-2.899,0.776c-1.035-0.277-2.14,0.021-2.898,0.779L24.233,75.01c-1.815,1.814,0.284,5.674,3.232,8.527 l28.104-28.103L52.517,52.383z"/></g></g></g><g id="R-Green" style="display:none"><g style="display:inline"><circle style="fill:#87e0c8" cx="55" cy="55" r="55"/></g><g style="display:inline"><g><path style="fill:#d7fcf9" d="M83.485,66.502c-3.139-3.139-7.582-4.164-11.583-3.098L50.167,41.67 c1.747-4.929,0.664-10.637-3.28-14.581c-3.947-3.947-9.659-5.029-14.591-3.277L42.645,34.16v5.657l-2.829,2.828h-5.657 L23.811,32.296c-1.751,4.931-0.669,10.644,3.278,14.591c3.949,3.949,9.666,5.03,14.6,3.274L63.417,71.89 c-1.066,4.001-0.041,8.445,3.098,11.583c4.686,4.687,12.284,4.687,16.971,0C88.171,78.787,88.171,71.189,83.485,66.502z M76.866,81.953l-6.965-1.866l-1.866-6.965l5.099-5.099l6.965,1.866l1.866,6.965L76.866,81.953z"/></g><g><path style="fill:#fff" d="M71.902,63.404L50.167,41.67c1.747-4.929,0.664-10.637-3.28-14.581 c-3.947-3.947-9.66-5.029-14.591-3.278l10.348,10.349v5.657l-1.356,1.355l29.348,29.347l2.497-2.496l6.965,1.866l1.866,6.965 l-2.497,2.498l4.067,4.067c4.633-4.69,4.619-12.247-0.05-16.916C80.346,63.363,75.903,62.338,71.902,63.404z"/></g><g><path style="fill:#009687" d="M53.788,68.08c0.757-0.757,1.055-1.864,0.779-2.898c-0.268-1.001-0.009-2.114,0.777-2.899 l2.828-2.829c0.39-0.39,0.39-1.023,0-1.414l-5.657-5.657c-0.391-0.39-1.024-0.39-1.414,0l-2.829,2.829 c-0.785,0.786-1.898,1.045-2.898,0.776c-1.036-0.276-2.141,0.021-2.899,0.779L24.231,75.011 c-3.536,3.535,7.778,14.849,11.313,11.314L53.788,68.08z"/></g><g><polygon style="fill:#d7fcf9" points="83.187 24.539 71.166 30.903 70.459 35.853 53.222 53.09 57.464 57.333 74.702 40.095 79.581 39.459 86.095 27.447"/></g><g><polygon style="fill:#fff" points="83.187 24.539 71.167 30.903 70.46 35.853 53.222 53.09 55.566 55.434 84.824 26.176"/></g><g><path style="fill:#00b8a5" d="M52.515,52.383c-0.391-0.391-1.023-0.391-1.414,0l-2.829,2.829 c-0.785,0.786-1.898,1.045-2.899,0.776c-1.035-0.277-2.14,0.021-2.898,0.779L24.231,75.01c-1.815,1.814,0.284,5.674,3.232,8.527 l28.104-28.103L52.515,52.383z"/></g></g></g><g id="Red" style="display:none"><g style="display:inline"><g><path style="fill:#ffefed" d="M83.485,66.502c-3.139-3.139-7.582-4.164-11.583-3.098L50.167,41.67 c1.747-4.929,0.664-10.637-3.28-14.581c-3.947-3.947-9.659-5.029-14.591-3.277L42.645,34.16v5.657l-2.829,2.828h-5.657 L23.811,32.296c-1.751,4.931-0.669,10.644,3.278,14.591c3.949,3.949,9.666,5.03,14.6,3.274l21.729,21.729 c-1.066,4.001-0.041,8.445,3.098,11.584c4.686,4.687,12.284,4.687,16.971,0C88.171,78.786,88.171,71.189,83.485,66.502z M76.866,81.952l-6.965-1.866l-1.866-6.965l5.099-5.099l6.965,1.866l1.866,6.965L76.866,81.952z"/></g><g><path style="fill:#fff" d="M71.902,63.404L50.167,41.67c1.747-4.929,0.664-10.637-3.28-14.581 c-3.947-3.947-9.66-5.029-14.591-3.278l10.348,10.349v5.657l-1.356,1.355l29.348,29.347l2.497-2.496l6.965,1.866l1.866,6.965 l-2.497,2.498l4.067,4.067c4.633-4.691,4.619-12.247-0.05-16.916C80.346,63.363,75.903,62.338,71.902,63.404z"/></g><g><path style="fill:#c23023" d="M53.788,68.08c0.757-0.757,1.055-1.864,0.779-2.898c-0.268-1.001-0.009-2.114,0.777-2.899 l2.828-2.829c0.39-0.39,0.39-1.023,0-1.414l-5.657-5.657c-0.391-0.39-1.024-0.39-1.414,0l-2.829,2.829 c-0.785,0.786-1.898,1.045-2.898,0.776c-1.036-0.276-2.141,0.021-2.899,0.779L24.231,75.011 c-3.536,3.535,7.778,14.849,11.313,11.313L53.788,68.08z"/></g><g><polygon style="fill:#ffefed" points="83.187 24.539 71.166 30.903 70.459 35.853 53.222 53.09 57.464 57.333 74.702 40.095 79.581 39.459 86.095 27.447"/></g><g><polygon style="fill:#fff" points="83.187 24.539 71.167 30.903 70.46 35.852 53.222 53.09 55.566 55.434 84.824 26.176"/></g><g><path style="fill:#e54b44" d="M52.515,52.383c-0.391-0.391-1.023-0.391-1.414,0l-2.829,2.829 c-0.785,0.786-1.898,1.045-2.899,0.776c-1.035-0.277-2.14,0.021-2.898,0.779L24.231,75.01c-1.815,1.814,0.284,5.674,3.232,8.527 l28.104-28.103L52.515,52.383z"/></g></g></g><g id="R-Red" style="display:none"><g style="display:inline"><circle style="fill:#fabbaf" cx="55" cy="55" r="55"/></g><g style="display:inline"><g><path style="fill:#ffefed" d="M83.485,66.502c-3.139-3.139-7.582-4.164-11.583-3.098L50.167,41.67 c1.747-4.929,0.664-10.637-3.28-14.581c-3.947-3.947-9.659-5.029-14.591-3.277L42.645,34.16v5.657l-2.829,2.828h-5.657 L23.811,32.296c-1.751,4.931-0.669,10.644,3.278,14.591c3.949,3.949,9.666,5.03,14.6,3.274L63.417,71.89 c-1.066,4.001-0.041,8.445,3.098,11.583c4.686,4.687,12.284,4.687,16.971,0C88.171,78.787,88.171,71.189,83.485,66.502z M76.866,81.953l-6.965-1.866l-1.866-6.965l5.099-5.099l6.965,1.866l1.866,6.965L76.866,81.953z"/></g><g><path style="fill:#fff" d="M71.902,63.404L50.167,41.67c1.747-4.929,0.664-10.637-3.28-14.581 c-3.947-3.947-9.66-5.029-14.591-3.278l10.348,10.349v5.657l-1.356,1.355l29.348,29.347l2.497-2.496l6.965,1.866l1.866,6.965 l-2.497,2.498l4.067,4.067c4.633-4.69,4.619-12.247-0.05-16.916C80.346,63.363,75.903,62.338,71.902,63.404z"/></g><g><path style="fill:#c23023" d="M53.788,68.08c0.757-0.757,1.055-1.864,0.779-2.898c-0.268-1.001-0.009-2.114,0.777-2.899 l2.828-2.829c0.39-0.39,0.39-1.023,0-1.414l-5.657-5.657c-0.391-0.39-1.024-0.39-1.414,0l-2.829,2.829 c-0.785,0.786-1.898,1.045-2.898,0.776c-1.036-0.276-2.141,0.021-2.899,0.779L24.231,75.011 c-3.536,3.535,7.778,14.849,11.313,11.314L53.788,68.08z"/></g><g><polygon style="fill:#ffefed" points="83.187 24.539 71.166 30.903 70.459 35.853 53.222 53.09 57.464 57.333 74.702 40.095 79.581 39.459 86.095 27.447"/></g><g><polygon style="fill:#fff" points="83.187 24.539 71.167 30.903 70.46 35.853 53.222 53.09 55.566 55.434 84.824 26.176"/></g><g><path style="fill:#e54b44" d="M52.515,52.383c-0.391-0.391-1.023-0.391-1.414,0l-2.829,2.829 c-0.785,0.786-1.898,1.045-2.899,0.776c-1.035-0.277-2.14,0.021-2.898,0.779L24.231,75.01c-1.815,1.814,0.284,5.674,3.232,8.527 l28.104-28.103L52.515,52.383z"/></g></g></g><g id="Yellow" style="display:none"><g style="display:inline"><g><path style="fill:#fff5d9" d="M83.488,66.502c-3.139-3.139-7.582-4.164-11.584-3.098L50.17,41.67 c1.747-4.929,0.664-10.637-3.28-14.581c-3.947-3.947-9.659-5.029-14.591-3.277L42.647,34.16v5.657l-2.829,2.828h-5.657 L23.813,32.296c-1.751,4.931-0.669,10.644,3.278,14.591c3.949,3.949,9.666,5.03,14.6,3.274l21.729,21.729 c-1.066,4.001-0.041,8.445,3.098,11.584c4.686,4.687,12.284,4.687,16.971,0C88.174,78.786,88.174,71.189,83.488,66.502z M76.869,81.952l-6.965-1.866l-1.866-6.965l5.099-5.099l6.965,1.866l1.866,6.965L76.869,81.952z"/></g><g><path style="fill:#fff" d="M71.905,63.404L50.17,41.67c1.747-4.929,0.664-10.637-3.28-14.581 c-3.947-3.947-9.66-5.029-14.591-3.278l10.348,10.349v5.657l-1.356,1.355L70.64,70.518l2.497-2.496l6.965,1.866l1.866,6.965 l-2.497,2.498l4.067,4.067c4.633-4.691,4.619-12.247-0.05-16.916C80.349,63.363,75.906,62.338,71.905,63.404z"/></g><g><path style="fill:#e07000" d="M53.79,68.08c0.757-0.757,1.055-1.864,0.779-2.898c-0.268-1.001-0.009-2.114,0.777-2.899 l2.828-2.829c0.39-0.39,0.39-1.023,0-1.414l-5.657-5.657c-0.391-0.39-1.024-0.39-1.414,0l-2.829,2.829 c-0.785,0.786-1.898,1.045-2.898,0.776c-1.036-0.276-2.141,0.021-2.899,0.779L24.233,75.011 c-3.536,3.535,7.778,14.849,11.313,11.313L53.79,68.08z"/></g><g><polygon style="fill:#fff5d9" points="83.19 24.539 71.169 30.903 70.462 35.853 53.225 53.09 57.467 57.333 74.705 40.095 79.583 39.459 86.098 27.447"/></g><g><polygon style="fill:#fff" points="83.189 24.539 71.169 30.903 70.462 35.852 53.225 53.09 55.569 55.434 84.827 26.176"/></g><g><path style="fill:#fa9200" d="M52.517,52.383c-0.391-0.391-1.023-0.391-1.414,0l-2.829,2.829 c-0.785,0.786-1.898,1.045-2.899,0.776c-1.035-0.277-2.14,0.021-2.898,0.779L24.233,75.01c-1.815,1.814,0.284,5.674,3.232,8.527 l28.104-28.103L52.517,52.383z"/></g></g></g><g id="R-Yellow" style="display:none"><g style="display:inline"><circle style="fill:#ffd75e" cx="55" cy="55" r="55"/></g><g style="display:inline"><g><path style="fill:#fff5d9" d="M83.485,66.502c-3.139-3.139-7.582-4.164-11.583-3.098L50.167,41.67 c1.747-4.929,0.664-10.637-3.28-14.581c-3.947-3.947-9.659-5.029-14.591-3.277L42.645,34.16v5.657l-2.829,2.828h-5.657 L23.81,32.296c-1.751,4.931-0.669,10.644,3.278,14.591c3.949,3.949,9.666,5.03,14.6,3.274L63.417,71.89 c-1.066,4.001-0.041,8.445,3.098,11.583c4.686,4.687,12.284,4.687,16.971,0C88.171,78.787,88.171,71.189,83.485,66.502z M76.866,81.953l-6.965-1.866l-1.866-6.965l5.099-5.099l6.965,1.866l1.866,6.965L76.866,81.953z"/></g><g><path style="fill:#fff" d="M71.902,63.404L50.167,41.67c1.747-4.929,0.664-10.637-3.28-14.581 c-3.947-3.947-9.66-5.029-14.591-3.278l10.348,10.349v5.657l-1.356,1.355l29.348,29.347l2.497-2.496l6.965,1.866l1.866,6.965 l-2.497,2.498l4.067,4.067c4.633-4.69,4.619-12.247-0.05-16.916C80.346,63.363,75.903,62.338,71.902,63.404z"/></g><g><path style="fill:#e07000" d="M53.788,68.08c0.757-0.757,1.055-1.864,0.779-2.898c-0.268-1.001-0.009-2.114,0.777-2.899 l2.828-2.829c0.39-0.39,0.39-1.023,0-1.414l-5.657-5.657c-0.391-0.39-1.024-0.39-1.414,0l-2.829,2.829 c-0.785,0.786-1.898,1.045-2.898,0.776c-1.036-0.276-2.141,0.021-2.899,0.779L24.23,75.011 c-3.536,3.535,7.778,14.849,11.313,11.314L53.788,68.08z"/></g><g><polygon style="fill:#fff5d9" points="83.187 24.539 71.166 30.903 70.459 35.853 53.222 53.09 57.464 57.333 74.702 40.095 79.581 39.459 86.095 27.447"/></g><g><polygon style="fill:#fff" points="83.187 24.539 71.166 30.903 70.46 35.853 53.222 53.09 55.566 55.434 84.824 26.176"/></g><g><path style="fill:#fa9200" d="M52.515,52.383c-0.391-0.391-1.023-0.391-1.414,0l-2.829,2.829 c-0.785,0.786-1.898,1.045-2.899,0.776c-1.035-0.277-2.14,0.021-2.899,0.779L24.23,75.01c-1.815,1.814,0.284,5.674,3.232,8.527 l28.103-28.103L52.515,52.383z"/></g></g></g></svg>